# xmcd CD database file
#
# Track frame offsets:
#	150
#	15131
#	27910
#	40590
#	52357
#	68927
#	87510
#	105627
#	117997
#	131852
#
# Disc length: 1927 seconds
#
# Revision: 3
# Processed by: cddbd v1.5.2PL0 Copyright (c) Steve Scherf et al.
# Submitted via: CDex 1.51
#
DISCID=8507850a
DTITLE=Mon Premier Noël - avec Mylie
DYEAR=2007
DGENRE=Chants de Noël
TTITLE0=Joyeux Noël
TTITLE1=Natacha
TTITLE2=Mon Sapin
TTITLE3=Si tu veux être un lutin
TTITLE4=Dors mon petit enfant
TTITLE5=C'est le vent
TTITLE6=Un homme en rouge et blanc
TTITLE7=Lili ma poupée
TTITLE8=Les soldats de bois
TTITLE9=Il pleut des papillons
EXTD=YEAR: 2007
EXTT0=
EXTT1=
EXTT2=
EXTT3=
EXTT4=
EXTT5=
EXTT6=
EXTT7=
EXTT8=
EXTT9=
PLAYORDER=
